<?xml version="1.0" standalone="no"?>
<!DOCTYPE svg PUBLIC "-//W3C//DTD SVG 20010904//EN"
 "http://www.w3.org/TR/2001/REC-SVG-20010904/DTD/svg10.dtd">
<svg version="1.0" xmlns="http://www.w3.org/2000/svg"
 width="862.000000pt" height="862.000000pt" viewBox="0 0 862.000000 862.000000"
 preserveAspectRatio="xMidYMid meet">
<metadata>
Created by potrace 1.11, written by Peter Selinger 2001-2013
</metadata>
<g transform="translate(0.000000,862.000000) scale(0.100000,-0.100000)"
fill="#000000" stroke="none">
<path d="M7120 5805 c0 -7 -1230 -10 -3560 -9 l-3560 1 0 -1487 0 -1487 3565
0 3566 0 745 745 c639 639 744 747 730 757 -9 7 -16 17 -16 24 0 6 -3 11 -8
11 -4 0 -24 17 -45 38 -20 20 -66 66 -102 102 -37 36 -94 94 -128 129 -34 35
-67 69 -74 75 -77 74 -223 221 -224 225 -1 3 -36 38 -79 76 -43 39 -78 73 -79
76 -1 5 -101 109 -105 109 -1 0 -142 141 -314 312 -171 172 -312 308 -312 303z
m-3550 -1388 l0 -682 -147 2 c-82 1 -152 2 -158 2 -7 1 -10 235 -10 680 l0
680 157 -1 157 0 1 -681z m491 675 c4 -44 1 -1344 -4 -1348 -5 -6 -214 -9
-289 -5 -17 1 -18 40 -18 680 l0 680 155 -1 c85 0 155 -3 156 -6z m-1036 -35
c19 -15 35 -34 35 -42 0 -8 5 -15 11 -15 5 0 7 -5 4 -10 -4 -6 -1 -17 5 -25
10 -12 10 -21 0 -44 -6 -17 -9 -34 -6 -39 3 -6 -1 -12 -9 -16 -8 -3 -15 -11
-15 -18 -1 -15 -62 -48 -90 -48 -11 0 -20 -4 -20 -9 0 -19 -117 11 -153 39
-36 28 -68 132 -45 146 4 3 8 14 8 25 0 10 5 19 10 19 6 0 10 7 10 15 0 8 7
15 15 15 8 0 15 4 15 9 0 17 54 29 123 27 57 -1 72 -5 102 -29z m-1845 -14 c0
-5 26 -9 56 -10 31 -1 60 -5 63 -10 3 -4 13 -9 21 -11 79 -16 219 -135 235
-202 1 -3 7 -18 14 -35 7 -16 15 -54 18 -83 l6 -53 -164 3 -164 3 1 24 c2 32
-25 76 -65 105 -25 19 -44 23 -101 24 -38 0 -72 -4 -76 -9 -3 -5 -10 -7 -15
-4 -5 4 -25 -9 -44 -28 -28 -27 -35 -42 -35 -71 0 -39 26 -90 41 -80 5 3 9 0
9 -6 0 -11 88 -56 103 -52 4 1 7 -2 7 -7 0 -5 23 -14 50 -21 28 -7 52 -16 55
-21 3 -4 12 -6 20 -2 8 3 15 0 15 -6 0 -6 7 -11 15 -11 18 0 89 -32 93 -43 2
-4 7 -5 12 -2 13 8 135 -87 176 -137 13 -17 28 -51 26 -60 -1 -5 2 -8 7 -8 13
0 31 -90 31 -150 0 -58 -20 -150 -32 -150 -5 0 -7 -4 -4 -9 3 -5 -18 -34 -47
-65 -53 -55 -154 -113 -214 -122 -16 -2 -44 -7 -63 -10 -53 -8 -194 -12 -205
-5 -5 3 -19 6 -30 7 -54 4 -165 35 -165 45 0 5 -3 8 -7 7 -11 -2 -84 34 -105
52 -9 8 -28 24 -42 35 -14 11 -26 23 -26 28 0 4 -13 25 -29 48 -29 39 -54 122
-55 184 l-1 30 163 3 c149 2 162 1 163 -15 2 -56 8 -86 20 -94 8 -5 10 -9 6
-9 -20 0 43 -49 79 -60 42 -14 184 -20 184 -8 0 4 11 10 25 14 35 9 63 52 61
94 -2 29 -44 130 -46 108 0 -4 -16 4 -36 17 -20 14 -45 25 -55 25 -11 0 -19 4
-19 8 0 5 -7 9 -15 10 -8 1 -22 3 -30 4 -8 1 -15 4 -15 8 0 4 -25 13 -55 20
-30 7 -55 17 -55 22 0 4 -3 7 -7 6 -14 -3 -147 66 -187 97 -47 36 -78 65 -70
65 3 0 -8 17 -24 38 -16 20 -27 43 -25 50 3 6 0 12 -5 12 -6 0 -9 8 -7 18 1 9
0 22 -4 27 -10 16 -9 135 1 135 5 0 7 9 3 19 -3 11 -1 22 5 26 6 3 8 11 5 16
-4 5 -1 9 4 9 6 0 11 7 11 15 0 16 100 128 108 120 3 -2 17 4 31 13 25 17 75
42 96 48 34 9 64 16 95 21 19 3 37 7 39 9 8 7 171 4 171 -3z m4135 -4 c28 -5
56 -10 63 -11 6 -1 12 -5 12 -10 0 -5 6 -8 13 -7 6 1 25 -3 40 -9 16 -7 33
-12 38 -12 5 0 9 -4 9 -10 0 -5 6 -10 13 -10 7 0 19 -9 27 -20 8 -11 19 -20
26 -20 14 0 69 -68 78 -98 4 -12 11 -22 15 -22 4 0 8 -6 9 -12 1 -21 7 -42 13
-53 4 -5 6 -32 6 -58 l1 -48 -157 3 c-118 2 -155 6 -153 16 1 6 -3 12 -9 12
-6 0 -9 9 -6 20 3 11 1 20 -4 20 -5 0 -9 6 -9 13 0 8 -11 24 -25 37 -14 13
-25 19 -25 14 0 -5 -4 -2 -10 6 -10 17 -170 26 -170 10 0 -6 -4 -9 -9 -7 -14
4 -71 -42 -71 -58 0 -8 -4 -15 -9 -15 -13 0 -8 -53 6 -68 7 -7 18 -21 25 -31
11 -15 106 -71 123 -72 2 0 21 -7 40 -15 20 -8 49 -17 66 -21 16 -3 32 -9 35
-14 2 -4 11 -6 19 -2 8 3 15 0 15 -6 0 -6 5 -11 11 -11 6 0 40 -14 75 -30 106
-51 207 -158 232 -244 9 -34 8 -209 -2 -231 -5 -11 -10 -22 -10 -25 -17 -69
-151 -175 -246 -195 -19 -4 -39 -10 -45 -13 -5 -4 -26 -7 -45 -7 -19 0 -39 -3
-45 -6 -13 -8 -137 -6 -150 2 -5 3 -27 5 -47 4 -21 0 -38 3 -38 8 0 4 -6 7
-12 5 -27 -5 -178 55 -186 75 -2 4 -8 7 -14 7 -14 0 -108 97 -101 104 4 3 2 6
-4 6 -12 0 -53 90 -58 129 -2 14 -4 26 -5 26 -1 0 -3 17 -4 38 l-2 37 162 0
161 0 7 -48 c4 -33 16 -58 39 -85 17 -20 35 -37 39 -37 4 0 19 -5 35 -11 40
-17 142 -17 183 -1 43 17 70 45 70 71 0 11 5 23 11 27 8 4 8 9 0 17 -6 6 -11
18 -11 28 0 29 -38 66 -97 94 -32 15 -64 28 -70 28 -7 0 -13 4 -13 9 0 4 -3 7
-7 6 -5 -2 -30 5 -58 15 -51 19 -72 26 -80 27 -13 2 -133 66 -159 84 -40 29
-116 104 -116 116 0 5 -8 14 -17 19 -10 6 -14 11 -10 11 5 0 5 6 0 13 -9 15
-14 35 -17 68 -2 14 -6 31 -10 38 -8 12 2 108 12 126 4 6 7 16 8 23 5 29 57
103 97 135 47 38 146 89 159 81 4 -3 8 -1 8 4 0 5 6 9 13 10 6 1 37 5 67 10
74 13 194 13 255 1z m851 -101 c3 -4 6 -58 6 -121 l0 -114 52 -1 c28 0 63 0
79 -1 l27 -1 0 -105 c0 -77 -3 -105 -12 -106 -7 -1 -38 -3 -68 -4 -30 -1 -60
-3 -67 -4 -9 -1 -12 -60 -10 -239 2 -282 1 -278 104 -276 l62 2 3 -42 c2 -22
2 -73 0 -113 -3 -67 -5 -72 -30 -79 -15 -4 -36 -8 -47 -9 -11 0 -24 -3 -30 -6
-5 -3 -39 -4 -75 -2 -102 5 -120 7 -120 14 0 3 -14 9 -30 13 -28 5 -121 88
-118 104 1 4 -4 21 -11 37 -13 29 -20 177 -24 465 l-2 135 -52 0 c-28 0 -54 3
-57 6 -8 8 -9 199 -1 207 3 3 30 5 60 4 l55 -1 0 119 c0 70 4 120 10 122 18 6
289 2 296 -4z m-3816 -230 c0 -5 7 -8 15 -8 17 0 76 -28 85 -39 3 -4 15 -14
27 -22 27 -19 88 -109 97 -143 3 -14 11 -26 17 -26 6 0 7 -4 4 -10 -3 -5 -3
-16 2 -22 4 -7 8 -24 9 -38 1 -14 3 -25 4 -25 1 0 3 -27 4 -60 1 -33 5 -66 10
-73 4 -7 4 -27 0 -45 -4 -17 -8 -52 -9 -77 -1 -25 -3 -47 -5 -50 -1 -3 -3 -16
-4 -30 -1 -14 -4 -29 -8 -35 -3 -5 -11 -27 -17 -47 -7 -21 -17 -38 -21 -38 -5
0 -7 -7 -4 -15 4 -8 2 -15 -3 -15 -5 0 -17 -15 -28 -32 -18 -32 -65 -83 -65
-71 0 3 -8 -1 -18 -10 -23 -21 -104 -57 -114 -50 -5 2 -15 0 -22 -6 -32 -27
-196 10 -239 54 -10 9 -21 15 -24 11 -3 -3 -7 -99 -7 -213 l-1 -208 -155 0
-155 0 0 668 0 667 30 1 c41 1 226 1 245 0 9 -1 17 -10 18 -21 4 -43 6 -50 14
-50 5 0 11 7 15 16 3 9 32 28 64 43 48 22 72 26 148 26 50 0 91 -3 91 -7z
m680 -7 l35 -1 -1 -475 c0 -261 -4 -478 -7 -481 -5 -6 -213 -9 -279 -5 -15 1
-16 41 -16 484 l0 482 116 -2 c64 -1 133 -2 152 -2z m3640 -672 c0 -5 4 -7 10
-4 22 14 119 -73 105 -95 -3 -6 -1 -10 5 -10 15 0 4 -103 -10 -108 -6 -2 -8
-7 -5 -12 6 -10 -65 -71 -76 -64 -4 2 -10 1 -12 -4 -8 -11 -85 -8 -133 6 -22
6 -50 22 -61 34 -25 27 -47 103 -36 121 4 6 6 20 5 29 -4 20 66 100 79 92 5
-3 9 0 9 6 0 6 3 9 8 7 4 -3 16 -1 27 4 29 11 85 11 85 -2z"/>
<path d="M2110 4468 c0 -4 -11 -10 -25 -14 -13 -3 -27 -15 -30 -25 -4 -10 -9
-19 -13 -19 -4 0 -7 -82 -6 -182 1 -151 4 -189 18 -215 15 -31 53 -51 84 -45
6 2 12 -2 12 -7 0 -5 10 -8 23 -5 12 3 27 6 33 7 41 9 87 76 98 143 2 16 5 31
6 34 7 16 5 157 -3 167 -4 6 -7 17 -5 25 6 29 -32 104 -64 123 -32 18 -128 28
-128 13z"/>
</g>
</svg>
